<svg width="662" height="157" viewBox="0 0 662 157" fill="none" xmlns="http://www.w3.org/2000/svg">
<g clip-path="url(#clip0_6266_1210)">
<path d="M82.7237 0C83.6174 0.921686 88.8309 11.3796 89.7546 13.1426C96.4531 25.7373 103.065 38.3776 109.591 51.0629L165.353 157.021C157.875 156.575 149.803 157.253 142.155 156.816C140.515 155.942 130.497 148.016 127.984 146.313C111.353 135.04 91.7622 128.161 71.4953 129.407C67.0217 129.715 62.5775 130.354 58.1983 131.318C54.9777 132.009 50.394 132.989 48.0333 135.239C41.8075 141.174 37.3791 150.167 31.7185 156.487L31.445 156.788C27.7538 156.969 23.9403 156.763 20.0324 156.978C34.5697 137.537 55.4568 110.555 77.37 99.7038C79.9514 98.4257 89.7079 94.1977 92.4693 95.4705C94.1834 96.2605 94.5041 97.6979 95.2177 99.4039C76.721 101.841 67.5301 113.019 55.1813 125.751C59.6938 123.887 64.3327 122.347 69.063 121.141C69.1382 121.115 69.2134 121.089 69.2882 121.062C92.3327 115.242 111.929 120.674 132.31 130.548C130.122 125.991 127.482 121.102 125.039 116.678C110.438 90.2488 97.1545 62.8473 82.5977 36.4285C79.2207 43.5005 74.6407 51.744 70.9523 58.742L48.1792 101.693C46.4793 104.889 34.9257 127.236 33.8402 128.039C21.1837 137.402 11.198 146.099 0 157.195C19.316 119.155 39.993 80.7739 59.8628 42.9506L74.8589 14.2943C76.58 10.9981 80.7231 2.45498 82.7237 0Z" fill="#C6A24E"/>
<path d="M419.945 44.2115C437.695 44.88 464.7 41.007 479.89 49.444C483.92 51.913 487.91 55.946 488.755 60.765C491.625 77.1505 483.49 86.0345 468.385 89.219C481.875 104.754 485.815 119.75 505.61 127.592C495.01 128.959 485.645 130.196 477.645 121.694C470.525 111.815 463.42 101.138 456.18 91.4905C450.99 91.3555 445.8 91.258 440.61 91.197C440.61 99.946 439.765 112.31 441.255 120.828C441.84 124.166 446.83 126.124 449.91 127.723C440.34 128.419 427.5 128.059 417.75 127.861C420.535 126.037 424.095 125.313 425.865 122.244C427.98 118.572 427.435 63.141 426.86 55.311C426.685 52.924 426.155 50.6735 425.54 48.369C423.585 47.3815 420.92 46.835 419.585 45.2L419.945 44.2115ZM440.5 86.3135C451.805 86.1875 460.805 88.132 470.035 81.6325C475.25 75.448 476.115 72.528 475.39 64.302C473.825 46.4865 453.255 48.728 440.845 49.117C440.025 54.506 440.48 79.3055 440.5 86.3135Z" fill="#C6A24E"/>
<path d="M249.264 41.8242C251.548 42.7007 259.466 61.2667 260.923 64.4197L279.04 103.416C281.762 109.27 284.887 117.118 288.649 122.253C290.254 124.444 295.202 126.453 297.832 127.685C288.942 128.493 274.259 128.065 265.092 127.823C267.195 126.525 271.008 125.035 272.025 123.032C272.737 118.167 265.697 104.718 263.41 99.7762C259.176 100.02 253.1 99.8402 248.726 99.8472C241.477 99.9077 234.228 99.8972 226.979 99.8162C224.868 105.029 218.336 117.65 218.866 123.016C219.011 124.486 224.519 126.901 226.209 127.757C221.911 128.081 206.165 128.337 202.645 127.572L202.348 126.996C204.83 125.149 209.503 123.492 210.892 120.74C223.353 96.0522 233.16 69.7487 245.409 44.8977C246.337 43.0132 247.427 42.4857 249.264 41.8242ZM229.128 95.0807L245.752 95.0887C250.81 95.0977 256.142 95.0182 261.176 95.1552C257.792 87.2772 254.355 79.4227 250.863 71.5922C249.691 68.9387 246.51 61.3762 245.057 59.2892C239.559 70.2322 234.251 83.6787 229.128 95.0807Z" fill="#C6A24E"/>
<path d="M575.987 44.2167C586.412 44.0872 596.842 44.1217 607.272 44.3197C604.927 45.5562 599.902 47.4067 599.267 49.9912C600.397 54.4397 614.672 72.8662 618.397 77.9092C621.687 72.9927 638.637 53.3577 637.727 48.8607C635.832 47.0302 632.527 45.8467 629.972 44.5572C636.887 43.7502 650.882 44.1737 657.602 44.6727C651.942 47.0572 648.832 48.2652 644.657 53.0987C636.622 62.4032 629.662 72.7962 621.502 81.9707C627.457 90.6052 634.347 99.0447 640.347 107.633C647.357 117.664 650.412 122.176 661.532 127.771C658.607 128.002 655.222 127.98 652.252 128.032C644.112 128.031 635.437 128.189 627.357 127.714C629.672 126.528 633.012 125.164 634.372 123.003C634.282 119.006 616.927 96.3412 613.432 91.3487C612.307 92.5697 608.642 97.0447 607.777 98.4837C604.932 103.219 589.607 119.403 591.272 123.843C593.067 125.669 596.042 126.677 598.457 127.704C590.822 128.279 577.757 128.205 570.137 127.709C574.412 125.455 578.672 124.243 582.212 120.665C592.312 110.444 600.297 97.6857 609.962 87.0612C601.667 75.0047 591.837 61.7857 582.627 50.3187C580.152 47.2372 576.772 47.3337 574.572 45.4342L574.652 44.7167L575.987 44.2167Z" fill="#C6A24E"/>
<path d="M308.975 44.1991C318.46 44.1456 327.4 44.0901 336.875 44.5001C334.565 45.8661 331.33 47.4381 328.875 48.7996C325.94 57.1246 327.26 93.6816 328.09 103.511C331.25 131.721 379.26 129.337 381.03 101.887C381.695 85.5481 382.12 68.2581 380.825 51.9926C380.345 45.9341 374.45 48.3551 373.76 44.9846C375.91 43.5506 387.335 44.1766 390.62 44.2191L397.535 44.6071C393.1 47.0486 388.505 48.0616 387.975 54.2161C385.17 86.7656 399.82 130.07 350.095 129.919C334.465 129.872 319.69 123.126 315.215 106.871C313.55 100.807 314 93.6421 314.01 87.3036L314.05 65.4141C314.055 60.3621 314.36 53.8126 312.075 49.2476C311.175 47.4491 308.44 47.1281 306.57 45.1691L306.955 44.5486L308.975 44.1991Z" fill="#C6A24E"/>
<path d="M523.721 44.2331C534.056 44.1721 544.471 43.9206 554.771 44.5956L546.911 48.1941C546.556 48.9151 546.191 49.6231 545.891 50.3681C543.906 55.2281 543.711 115.702 545.431 121.307C546.401 124.477 551.176 124.929 552.236 127.386L551.431 127.934C542.566 128.25 530.851 128.137 521.996 127.854C524.466 126.288 527.421 124.702 530.001 123.118C532.246 113.171 532.166 58.3991 529.751 48.7126C527.926 47.7096 524.431 46.3631 523.361 44.9756L523.721 44.2331Z" fill="#C6A24E"/>
</g>
<defs>
<clipPath id="clip0_6266_1210">
<rect width="662" height="157" fill="white"/>
</clipPath>
</defs>
</svg>
