<svg width="165" height="157" viewBox="0 0 165 157" fill="none" xmlns="http://www.w3.org/2000/svg">
<g clip-path="url(#clip0_6267_1218)">
<path d="M82.7237 0C83.6174 0.921686 88.8309 11.3796 89.7546 13.1426C96.4531 25.7373 103.065 38.3776 109.591 51.0629L165.353 157.021C157.875 156.575 149.803 157.253 142.155 156.816C140.515 155.942 130.497 148.016 127.984 146.313C111.353 135.04 91.7622 128.161 71.4953 129.407C67.0217 129.715 62.5775 130.354 58.1983 131.318C54.9777 132.009 50.394 132.989 48.0333 135.239C41.8075 141.174 37.3791 150.167 31.7185 156.487L31.445 156.788C27.7538 156.969 23.9403 156.763 20.0324 156.978C34.5697 137.537 55.4568 110.555 77.37 99.7038C79.9514 98.4257 89.7079 94.1977 92.4693 95.4705C94.1834 96.2605 94.5041 97.6979 95.2177 99.4039C76.721 101.841 67.5301 113.019 55.1813 125.751C59.6938 123.887 64.3327 122.347 69.063 121.141C69.1382 121.115 69.2134 121.089 69.2882 121.062C92.3327 115.242 111.929 120.674 132.31 130.548C130.122 125.991 127.482 121.102 125.039 116.678C110.438 90.2488 97.1545 62.8473 82.5977 36.4285C79.2207 43.5005 74.6407 51.744 70.9523 58.742L48.1792 101.693C46.4793 104.889 34.9257 127.236 33.8402 128.039C21.1837 137.402 11.198 146.099 0 157.195C19.316 119.155 39.993 80.7739 59.8628 42.9506L74.8589 14.2943C76.58 10.9981 80.7231 2.45498 82.7237 0Z" fill="#C6A24E"/>
</g>
<defs>
<clipPath id="clip0_6267_1218">
<rect width="165" height="157" fill="white"/>
</clipPath>
</defs>
</svg>
